<svg width="40" height="61" viewBox="0 0 40 61" fill="none" xmlns="http://www.w3.org/2000/svg">
<path d="M4.94546 19.947L8.43636 18.971C9.92727 18.544 10.9091 17.385 10.9091 16.0735V3.05C10.9091 1.3725 12.5455 0 14.5455 0H25.4545C27.4545 0 29.0909 1.3725 29.0909 3.05V16.104C29.0909 17.4155 30.0727 18.5745 31.5636 19.0015L35.0545 19.9775C38 20.8315 40 23.1495 40 25.7725V54.9C40 58.255 36.7273 61 32.7273 61H7.27273C3.27273 61 -1.19209e-06 58.255 -1.19209e-06 54.9V25.742C-1.19209e-06 23.119 2 20.801 4.94546 19.947ZM21.8182 6.1H18.1818V9.15H21.8182V6.1ZM7.27273 54.9H32.7273V48.8H7.27273V54.9ZM7.27273 48.8H32.7273V36.6H7.27273V48.8ZM7.27273 36.6H32.7273V25.742L29.2727 24.766C24.8 23.546 21.8182 20.0385 21.8182 16.104V15.25H18.1818V16.104C18.1818 20.0385 15.2 23.546 10.7273 24.7965L7.27273 25.742V36.6Z" fill="black"/>
</svg>
