<svg width="33" height="60" viewBox="0 0 33 60" fill="none" xmlns="http://www.w3.org/2000/svg">
<path d="M28.92 19.62L26.04 18.66C24.81 18.24 24 17.1 24 15.81V3C24 1.35 22.65 0 21 0H12C10.35 0 9 1.35 9 3V15.84C9 17.13 8.19 18.27 6.96 18.69L4.08 19.65C1.65 20.49 0 22.77 0 25.35V54C0 57.3 2.7 60 6 60H27C30.3 60 33 57.3 33 54V25.32C33 22.74 31.35 20.46 28.92 19.62ZM15 6H18V9H15V6ZM27 54H6V48H27V54ZM27 48H6V36H27V48ZM27 36H6V25.32L8.85 24.36C12.54 23.16 15 19.71 15 15.84V15H18V15.84C18 19.71 20.46 23.16 24.15 24.39L27 25.32V36Z" fill="black"/>
</svg>
